# xmcd
#
# Track frame offsets:
#	150
#	16342
#	29386
#	39662
#	52180
#	68755
#	82134
#	95393
#	109031
#	122955
#	134769
#	155566
#
# Disc length: 2302 seconds
#
# Revision: 1
# Processed by: cddbd v1.5.2PL0 Copyright (c) Steve Scherf et al.
# Submitted via: audiograbber 1.83.01
#
DISCID=aa08fc0c
DTITLE=Barry White - Under The Influence Of Love
DYEAR=1900
DGENRE=Soul
TTITLE0=Come On In Love
TTITLE1=Fragile-Handle With Care
TTITLE2=I Owe It All To You
TTITLE3=All In The Run Of Love
TTITLE4=Long Black Veil
TTITLE5=My Buddy
TTITLE6=Out Of The Shadows Of Love
TTITLE7=I've Got The Whole World To Hold Me Up
TTITLE8=Under The Influence Of Love
TTITLE9=Where Can I Turn To
TTITLE10=I've Got The Whole World To Hold Me Up (Big Man mix)
TTITLE11=Your Heart And Soul
EXTD=
EXTT0=
EXTT1=
EXTT2=
EXTT3=
EXTT4=
EXTT5=
EXTT6=
EXTT7=
EXTT8=
EXTT9=
EXTT10=
EXTT11=
PLAYORDER=
